<?xml version="1.0" encoding="UTF-8"?><svg id="Layer_1" xmlns="http://www.w3.org/2000/svg" viewBox="0 0 30 30"><defs><style>.cls-1,.cls-2{stroke-width:0px;}.cls-2{fill:#fff;}</style></defs><circle class="cls-1" cx="15" cy="15.42" r="8.81"/><rect class="cls-1" x="13.45" y="4.87" width="3.1" height="3.1"/><rect class="cls-1" x="13.45" y="22.68" width="3.1" height="3.1"/><rect class="cls-1" x="19.75" y="7.48" width="3.1" height="3.1" transform="translate(12.62 -12.41) rotate(45)"/><rect class="cls-1" x="7.16" y="20.07" width="3.1" height="3.1" transform="translate(17.84 .18) rotate(45)"/><rect class="cls-1" x="22.36" y="13.78" width="3.1" height="3.1" transform="translate(39.23 -8.58) rotate(90)"/><rect class="cls-1" x="4.55" y="13.78" width="3.1" height="3.1" transform="translate(21.42 9.23) rotate(90)"/><rect class="cls-1" x="19.75" y="20.07" width="3.1" height="3.1" transform="translate(51.65 21.85) rotate(135)"/><rect class="cls-1" x="7.16" y="7.48" width="3.1" height="3.1" transform="translate(21.24 9.26) rotate(135)"/><path class="cls-2" d="m14.93,8.96v1.82c-2.46,0-4.47,2.03-4.47,4.47h-1.82c0-3.6,2.94-6.3,6.3-6.3Z"/></svg>